<?xml version="1.0" encoding="utf-8"?>
<!-- Generator: Adobe Illustrator 28.0.0, SVG Export Plug-In . SVG Version: 6.00 Build 0)  -->
<svg version="1.1" id="Camada_1" xmlns="http://www.w3.org/2000/svg" xmlns:xlink="http://www.w3.org/1999/xlink" x="0px" y="0px"
	 viewBox="0 0 416.3 286.6" style="enable-background:new 0 0 416.3 286.6;" xml:space="preserve">
<style type="text/css">
	.st0{fill:#020202;}
</style>
<g>
	<path class="st0" d="M90.6,224.2c1.2-51-35-77.4-63.7-114.3C1.2,76.7-10.2,29.4,35.1,6.4c31.6-16,108-2.7,90,47.2
		c-6.3,17.5-30.7,23.8-44.5,10.1C75.4,58.6,72,50.8,76,44c8.9-15.1,23-0.5,33.5-4.6c21.6-8.3-20.1-28.4-32.8-27.8
		C55.5,12.5,43,30.3,38.7,48.8c-11.9,50.9,32.5,87.3,60.1,123.9c26,34.5,41,88.8-10.5,109.8c-32,13.1-104.6-5.9-85-52.2
		c7.8-18.4,35.5-22.9,47-4.2c19.4,31.8-28.3,16.2-31.4,21.7c-10.6,18.4,23,28,33.8,26C76.1,269.4,90.2,245.8,90.6,224.2z"/>
	<path class="st0" d="M289.4,188.4"/>
	<path class="st0" d="M135.7,252.6c0-19.3,1.9-39.2,2.9-58.8c1-17.7,3.8-36.1,3.8-53.8c0-5-0.6-9-0.6-15.8c0-3.1,4.1-7.2,13.1-8.1
		c8.3-0.9,22.7-2.5,31.4-2.5c11.9,0,15.5,1,25.1,9.7c2.2,1.6,2.9,2.5,2.9,3.7c0,0.3,1.5,3.7,0.6,5.8c-1.6,4.4-1.6,6.8-7.4,6.8
		c-5.4,0-10.3-3.1-15.7-3.1c-16,0-31,9.1-31,22.5c0,4,0.6,8.4,1.9,13.4c0,4.7,19.1,1.9,28.1,4.4c5.8,1.6,9.9,5.9,9.9,14.3
		c0,13.7-41.6,5-43.2,27.7c-0.6,2.5,2.6,29.3,2.6,32.1c0,1.9-0.6,4-0.6,6.2c0,2.8-2,5.3,3.2,5.3c7.7,0,19.8-3.1,27.5-3.1h2.6
		c2.2,0,5.1,0,7.1,1.2c1.6,0.9,2.6,3.1,3.5,5c1.3,2.5,1.3,5.6,1.3,6.5c0,13.4-28.1,14.3-42.5,14.3h-4.4c-8,0-16.2-1.6-17.1-6.5
		C137.3,273.4,135.7,265.6,135.7,252.6z"/>
	<path class="st0" d="M258.7,279.2l-2.8-6.6c-4.6-17.9-5.7-32.8-5.7-45.1c0-23.9,3.5-48.1,3.5-70.1c0-10.1,3.6-34.4,1.5-43.3
		c-0.7-3.4-3.9-3.4-8.1-3.4h-5.7c-11.3,0-20.9,9.4-23.8-2.1c-0.7-3-2.5-5.6-2.5-9.3c0-2.2,3.2-3,6.4-4.5
		c24.4-11.2,57.9-14.5,85.5-14.5c3.9,0,7.8,1.9,10.9,3.7c5.3,3.4,9.2,8.6,9.2,18.6c0,5.6-1.4,8.9-5.3,8.9c-4.6,0-9.2-6.4-14.1-6.4
		c-4.6,0-11.3,0.4-16.2,1.9c-3.5,1.1-6,2.6-6.7,5.2c-3.5,14.5-5.3,78.7-7.1,105.5c0.4,19.8,4.3,38.8,6,48.5c0.7,4.1,1.8,2.8,1.8,6.2
		c0,7.5-4.2,13.8-13.8,13.8c-4.6,0-6.7,0-10.6-2.6C259.4,282.5,259.4,281,258.7,279.2z"/>
	<path class="st0" d="M328.8,272.9c0-18,11.5-33.4,11.5-51.4c0-8-6.1-30.1-10.9-50.2c-3.8-16.8-6.7-32.2-6.7-37.2
		c0-3,1.6-5.3,7.7-5.3c5.8,0,13.7,0.6,15.6,8.3c2.2,8.9,6.1,25.4,9.6,36.9c2.2,7.1,2.9,12.4,6.1,12.4c1.6,0,4.5-3.8,7.7-10.6
		c2.2-4.7,5.8-10.3,7.7-18c2.9-10.9,8.4-54.1,12.2-65.9c1.9-6.2,3.5-10.3,7.4-10.3c5.8,0,9.9,3,14.1,7.7c4.8,5.6,5.4,15.4,5.4,20.4
		c0,28.4-24.7,91-41.1,109.4c-2.2,2.1-3.2,4.4-4.2,7.4c-2.9,12.7-11.5,44.6-13.8,51.1c-2.6,7.4-4,8.9-13.3,8.9
		c-5.4,0-13.1-0.9-14.1-5.9C329.2,278.2,328.8,275.6,328.8,272.9z"/>
	<path class="st0" d="M198.9,60.5c49.8-4,73.2-25,107.4-43.1c30.6-16.2,76-26.3,101.4-5.1c17.7,14.8,9.7,55.3-40.2,50.5
		c-17.4-1.7-25.2-13.6-12.7-21.9c4.7-3.1,12-5.6,19-4.2c15.3,3.2,2,11.8,6.6,16.8c9.5,10.3,26.3-12.9,25-19.4
		C403,23.3,384.9,18.5,366.6,18c-50.4-1.5-83.1,24.6-117,42.1c-32,16.5-84,29.1-107.8,4.6c-14.8-15.3-1-54.3,45.4-48.4
		c18.4,2.3,24.7,16.2,7.2,23.8c-29.7,12.9-17.6-13.1-23.2-14.2C152.6,22,145.4,40.2,148,45.5C153.9,57.2,177.8,62.3,198.9,60.5z"/>
</g>
</svg>
